# xmcd
#
# Track frame offsets:
#	150
#	13587
#	26952
#	58617
#	76687
#	106140
#	141942
#	173272
#	198482
#	228952
#	257790
#	291762
#
# Disc length: 4047
#
# Revision: 1
# Processed by: cddbd v1.5.1PL0 Copyright (c) Steve Scherf et al.
# Submitted via: CDex 1.50
# Normalized: r0:DSETVAR1
#
DISCID=980fcd0c
DTITLE=Various Artist - 60 Blue Note Years - The Finest In Jazz
DYEAR=1999
DGENRE=Jazz
TTITLE0=Tiny Grimes Swingtet - Tiny's Boogie Woogie
TTITLE1=Thelonious Monk - Well You Needn't
TTITLE2=Horace Silver - Señor Blues
TTITLE3=Kenny Burrell - Midnight Blue
TTITLE4=Dexter Gordon - Cheese Cake
TTITLE5=Herbie Hancock - Maiden Voyage
TTITLE6=Andrew Hill - Black Fire
TTITLE7=Dianne Reeves - Never Said
TTITLE8=Charlie Hunter - Fistful Of Haggis
TTITLE9=Joe Lovano - Lines and Spaces
TTITLE10=Jacky Terrasson - I Love Paris
TTITLE11=Cassandra Wilson and Ron Carter - Joshua Fit De Battle Ob Jerico
EXTD=YEAR: 1999
EXTT0=
EXTT1=
EXTT2=
EXTT3=
EXTT4=
EXTT5=
EXTT6=
EXTT7=
EXTT8=
EXTT9=
EXTT10=
EXTT11=
PLAYORDER=
